<svg width="40" height="40" viewBox="0 0 40 40" fill="none" xmlns="http://www.w3.org/2000/svg">
  <defs>
    <linearGradient id="gradManual" x1="6" y1="2" x2="34" y2="38" gradientUnits="userSpaceOnUse">
      <stop offset="0.259336" stop-color="#FFDB6E"/>
      <stop offset="1" stop-color="#FFBC5E"/>
    </linearGradient>
  </defs>
  <path d="M11 4h18a3 3 0 0 1 3 3v26a3 3 0 0 1-3 3H11a3 3 0 0 1-3-3V7a3 3 0 0 1 3-3Zm0 2a1 1 0 0 0-1 1v26a1 1 0 0 0 1 1h18a1 1 0 0 0 1-1V7a1 1 0 0 0-1-1H11Z" fill="url(#gradManual)"/>
  <path d="M15 3h10v4a2 2 0 0 1-2 2h-6a2 2 0 0 1-2-2V3Z" fill="url(#gradManual)"/>
  <path d="m17.6 16.1-1.3-1.3a1 1 0 0 0-1.4 1.4l2 2a1 1 0 0 0 1.4 0l3.5-3.5a1 1 0 0 0-1.4-1.4l-2.8 2.8ZM23 16h4a1 1 0 1 1 0 2h-4a1 1 0 1 1 0-2Z" fill="url(#gradManual)"/>
  <path d="m17.6 24.1-1.3-1.3a1 1 0 0 0-1.4 1.4l2 2a1 1 0 0 0 1.4 0l3.5-3.5a1 1 0 0 0-1.4-1.4l-2.8 2.8ZM23 24h4a1 1 0 1 1 0 2h-4a1 1 0 1 1 0-2Z" fill="url(#gradManual)"/>
</svg>
